# xmcd
#
# Track frame offsets: 
#        150
#        19760
#        35382
#        57327
#        78225
#        97782
#        116067
#        136960
#        155855
#        175115
#        192795
#        211017
#        226122
#        244517
#        264097
#        287647
#        308255
#        328437
#
# Disc length: 4614 seconds
#
# Revision: 0
# Processed by: cddbd v1.5.1PL2 Copyright (c) Steve Scherf et al.
# Submitted via: ExactAudioCopy v0.95a5
#
DISCID=e2120412
DTITLE=Various Artist - Slow Motion 2
DYEAR=2006
DGENRE=R&B
TTITLE0=D'Angelo - Untitiled(How Does It Fell)
TTITLE1=Ashanti - Foolish
TTITLE2=Tyrese - How You Gonna Act Like That
TTITLE3=Whitney Houston - Heartbreak Hotel
TTITLE4=Ruben Studdard - Sorry 2004
TTITLE5=Ginuwine - In Those Jeans
TTITLE6=TLC - Red Light Special
TTITLE7=keith Sweat Feat. Athena Cage - Nobody
TTITLE8=Toni Braxton - IDon't Want To
TTITLE9=Craig David - 7 Days
TTITLE10=Monica - So Gone
TTITLE11=Boyz II Men - Water Runs Dry
TTITLE12=Busta Rhymes Feat. Janet Jackson - What's It Gonna Be
TTITLE13=K-Ci and JoJo - Crazy
TTITLE14=Spakle Feat. R. Kelly - Be Careful
TTITLE15=Sisqo - Incomplete
TTITLE16=Floetry - Say Yes
TTITLE17=Shaggy Feat. Rayvon - Angel
EXTD=
EXTT0=
EXTT1=
EXTT2=
EXTT3=
EXTT4=
EXTT5=
EXTT6=
EXTT7=
EXTT8=
EXTT9=
EXTT10=
EXTT11=
EXTT12=
EXTT13=
EXTT14=
EXTT15=
EXTT16=
EXTT17=
PLAYORDER=
